# xmcd
# Track frame offsets:
# 150
# 15853
# 28870
# 47080
# 60395
# 75642
# 90653
# 101499
# 115994
# 130744
# 143624
# 156935
#
# Disc length: 2338 seconds
# Revision: 0
# Processed by: cddbd v1.4PL0 Copyright (c) Steve Scherf et al.
# Submitted via: VisiTrax 2.9.5.180 - For more info visit www.synapsa.com
#
DISCID=8c09200c
DTITLE=T Jae Christian - Old porch swing
DYEAR=2002
DGENRE=
TTITLE0=I can't go home to heaven
TTITLE1=Meanwhile down at the honky tonk
TTITLE2=Old porch swing
TTITLE3=This is where my heart gets off
TTITLE4=I'd better off in a pine box
TTITLE5=Anytime you want a fool around
TTITLE6=Goodbye walk
TTITLE7=He stopped loving her today
TTITLE8=War between the states
TTITLE9=Kentucky woman
TTITLE10=Once upon ou and me
TTITLE11=Jessie told Becky goodbye
EXTD=
EXTT0=
EXTT1=
EXTT2=
EXTT3=
EXTT4=
EXTT5=
EXTT6=
EXTT7=
EXTT8=
EXTT9=
EXTT10=
EXTT11=
PLAYORDER=
